<svg width="332" height="373" viewBox="0 0 332 373" fill="none" xmlns="http://www.w3.org/2000/svg">
<path fill-rule="evenodd" clip-rule="evenodd" d="M112.704 262.661C112.38 261.61 111.636 260.741 110.649 260.259C109.661 259.776 108.519 259.722 107.491 260.112C96.9695 264.014 82.4307 264.951 67.4961 252.787C58.9689 245.842 54.3101 238.011 52.4381 229.849C49.7327 218.057 52.9777 205.298 60.1339 193C67.7686 179.881 88.6236 158.756 111.347 144.116C117.011 140.466 122.794 137.236 128.521 134.601C129.46 134.177 130.16 133.353 130.426 132.357C130.691 131.36 130.495 130.297 129.891 129.461C129.894 129.459 129.893 129.458 129.893 129.458C126.655 124.979 124.655 119.2 124.655 111.689C124.655 95.1602 134.389 80.8874 148.431 74.2932C149.024 74.0218 149.447 73.4769 149.562 72.8354C149.678 72.1928 149.471 71.5352 149.01 71.0728C145.079 67.1316 136.946 58.998 136.946 58.998C134.015 56.0673 134.015 51.3086 136.946 48.3779C139.876 45.4471 144.634 45.4471 147.565 48.3779C147.565 48.3779 160.221 61.0352 164.527 65.3401C164.903 65.7156 165.411 65.9258 165.942 65.9258C166.472 65.9258 166.98 65.7156 167.356 65.3401C171.662 61.0352 184.318 48.3779 184.318 48.3779C187.249 45.4471 192.007 45.4471 194.938 48.3779C197.868 51.3086 197.868 56.0673 194.938 58.998C194.938 58.998 186.803 67.1316 182.868 71.0675C182.404 71.5309 182.198 72.1917 182.314 72.8364C182.43 73.4801 182.855 74.0272 183.449 74.2996C197.495 80.8874 207.228 95.1602 207.228 111.689C207.228 119.2 205.228 124.979 201.99 129.458L201.989 129.459C201.385 130.296 201.188 131.36 201.454 132.358C201.72 133.354 202.419 134.179 203.36 134.604C209.088 137.236 214.872 140.466 220.536 144.116C243.259 158.756 264.114 179.881 271.749 193C278.905 205.298 282.151 218.057 279.446 229.849C277.573 238.011 272.915 245.842 264.387 252.787C249.452 264.951 234.915 264.014 224.393 260.11C223.364 259.72 222.222 259.774 221.234 260.257C220.246 260.739 219.501 261.609 219.178 262.661C213.123 281.624 197.207 296.2 177.472 300.348C175.145 300.814 173.472 302.857 173.472 305.23C173.451 310.778 173.451 319.869 173.451 319.869C173.451 324.013 170.086 327.378 165.942 327.378C161.797 327.378 158.433 324.013 158.433 319.869V305.23C158.433 302.848 156.752 300.797 154.415 300.328C134.676 296.2 118.76 281.624 112.704 262.661ZM169.658 164.842C169.052 163.32 167.579 162.323 165.942 162.323C164.304 162.323 162.832 163.32 162.226 164.842C161.022 167.86 159.808 170.84 158.583 173.792C158.069 175.027 158.207 176.436 158.949 177.548C159.69 178.66 160.939 179.329 162.276 179.329C164.609 179.329 167.274 179.329 169.608 179.329C170.944 179.329 172.193 178.66 172.935 177.548C173.676 176.436 173.814 175.027 173.3 173.792C172.075 170.84 170.862 167.86 169.658 164.842ZM152.293 194.347C150.719 194.347 149.291 195.27 148.645 196.705C147.768 198.653 146.883 200.6 145.99 202.55C145.424 203.789 145.526 205.23 146.262 206.377C146.998 207.523 148.265 208.216 149.627 208.216C158.234 208.216 173.65 208.216 182.256 208.216C183.617 208.216 184.887 207.523 185.621 206.377C186.357 205.23 186.46 203.789 185.893 202.55C185 200.6 184.115 198.653 183.238 196.705C182.592 195.27 181.164 194.347 179.59 194.347C173.51 194.347 158.373 194.347 152.293 194.347ZM138.863 223.234C137.318 223.234 135.912 224.123 135.249 225.519C134.329 227.458 133.398 229.412 132.46 231.381C131.869 232.62 131.956 234.076 132.688 235.237C133.421 236.399 134.698 237.102 136.071 237.102C149.789 237.102 182.094 237.102 195.812 237.102C197.185 237.102 198.462 236.399 199.195 235.237C199.928 234.076 200.014 232.62 199.424 231.381C198.484 229.412 197.555 227.458 196.634 225.519C195.972 224.123 194.565 223.234 193.02 223.234C183.32 223.234 148.563 223.234 138.863 223.234ZM130.557 252.121C129.304 252.121 128.123 252.708 127.366 253.707C126.61 254.707 126.366 256.003 126.707 257.209C131.723 274.14 147.398 286.523 165.942 286.523C184.485 286.523 200.161 274.14 205.143 257.199C205.481 256.004 205.239 254.719 204.49 253.728C203.74 252.737 202.569 252.154 201.326 252.154C186.886 252.121 144.997 252.121 130.557 252.121ZM165.942 86.4924C152.036 86.4924 140.746 97.7831 140.746 111.689C140.746 124.986 152.644 126.629 165.942 126.629C179.239 126.629 191.137 124.986 191.137 111.689C191.137 97.7831 179.848 86.4924 165.942 86.4924ZM152.391 148.697C152.905 147.338 152.642 145.81 151.705 144.702C150.768 143.592 149.304 143.079 147.879 143.359C138.832 145.603 129.009 150.603 119.481 156.741C99.0066 169.932 79.9935 188.733 73.1151 200.553C64.8936 214.68 62.8276 229.616 76.9801 241.142C87.8695 250.011 99.4786 246.923 106.146 243.774C109.259 242.301 111.769 239.799 113.253 236.69C128.147 205.555 140.683 179.605 152.391 148.697ZM183.996 143.398C182.585 143.121 181.136 143.63 180.208 144.727C179.281 145.825 179.021 147.338 179.528 148.683C191.2 179.605 203.736 205.555 218.604 236.703C220.09 239.817 222.605 242.326 225.724 243.802C232.404 246.923 244.013 250.011 254.903 241.142C269.055 229.616 266.989 214.68 258.769 200.553C251.889 188.733 232.876 169.932 212.402 156.741C202.874 150.603 193.051 145.603 183.996 143.398Z" fill="#FECB4D"/>
</svg>
